<svg xmlns="http://www.w3.org/2000/svg" viewBox="0 0 141.04 114.05"><defs><style>.cls-1{fill:#fff;}</style></defs><g id="Layer_2" data-name="Layer 2"><g id="Layer_1-2" data-name="Layer 1"><polygon class="cls-1" points="40.45 74.5 50.06 50.52 36.56 40.17 15.06 98.78 55.11 86.65 57.59 83.15 54.39 58.29 40.45 74.5"/><polygon class="cls-1" points="91.78 50.52 98.41 74.5 87.35 59.47 84.29 83.28 84.29 83.29 86.73 86.65 125.07 98.78 104.58 40.17 91.78 50.52"/><path class="cls-1" d="M109.9.48c-17.1-2.88-30.69,10-32.61,11.83-8.73,8.73-15.3,0-15.3,0A36.41,36.41,0,0,0,42.37.7,36,36,0,0,0,7.74,12.94C-2.64,25.66-2.72,45.23,8.35,59.83l14,10.92,4.42-12L14.83,49c-.92-1.51-5.67-9.61-3-19.38A24.54,24.54,0,0,1,32.44,12.19,25,25,0,0,1,55.87,22.75c14,14,27.9,0,27.9,0a25.51,25.51,0,0,1,14.4-10.12,25.23,25.23,0,0,1,26.47,10.29c7.87,11.58,2.1,24.56,1.79,25.21l-12.8,9.67,4.09,11.71,10-8.06c3.93-2.5,9.31-6.88,11.84-13.79C145.92,30.19,131.26,4.08,109.9.48Z"/><path class="cls-1" d="M95,31l1.31-2.5V24.45h-1.5L87.36,31,70.84,45.66,54.33,31,46.9,24.45H44.29v1.92L46.73,31l11.2,21.41h-.19l6.73,53.71.47,3.77a6.46,6.46,0,0,0,5.92,4.12,6.85,6.85,0,0,0,5.81-3.55l.93-7.42,6.34-50.63h-.15Z"/></g></g></svg>